# xmcd
#
# Track frame offsets: 
#        150
#        13913
#        26025
#        40917
#        55571
#        68850
#        84047
#        98117
#        111312
#        125191
#        139772
#        153153
#        166398
#        180904
#        191418
#        204924
#        219040
#        231717
#        245187
#        258557
#        271992
#        287036
#        302041
#        314914
#
# Disc length: 4358 seconds
#
# Revision: 4
# Processed by: cddbd v1.5.2PL0 Copyright (c) Steve Scherf et al.
# Submitted via: ExactAudioCopyFreeDBPlugin 1.0
#
DISCID=5c110418
DTITLE=Various Artist - The History Of Rhythm And Blues 1925-1942
DYEAR=2008
DGENRE=Blues
TTITLE0=Bennie Moten's Kansas City Orchestra - Get Low-Down Blues
TTITLE1=Lonnie Johnson - Mr Johnson's Blues
TTITLE2=Bessie Smith - Backwater Blues
TTITLE3=Louis Armstrong - Knockin' A Jug
TTITLE4=Charles Pierce Orchestra - Bullfrog Blues
TTITLE5=Pinetop Smith - Pinetop's Boogie Woogie
TTITLE6=Cow Cow Davenport - Cow Cow Blues
TTITLE7=Blind Roosevelt Graves And Brother - Guitar Boogie
TTITLE8=Leroy Carr - How Long, How Long Blues
TTITLE9=Speckled Red - The Dirty Dozen
TTITLE10=Little Brother Montgomery - Vicksburg Blues
TTITLE11=Blue Harmony Boys - Sweet Miss Stella Blues
TTITLE12=Cab Calloway and His Orchestra - Minnie The Moocher
TTITLE13=The Mills Brothers - St. Louis Blues
TTITLE14=Three Keys - Somebody Stole Gabriel's Horn
TTITLE15=Leroy Carr - Midnight Hour Blues
TTITLE16=Bennie Moten's Kansas City Orchestra - Lafayette
TTITLE17=Jimmie Lunceford and His Orchestra - Flaming Reeds And Scream
TTITLE17=ing Brass
TTITLE18=Cripple Clarence Lofton - Strut That Thing
TTITLE19=Roosevelt Sykes - Dirty Mother For You
TTITLE20=The Harlem Hamfats - Weed Smoker's Dream
TTITLE21=Lil Johnson - Press My Button
TTITLE22=Roosevelt Sykes - Night Time Is The Right Time
TTITLE23=Georgia White - The Blues Ain't Nothing But
EXTD=
EXTT0=
EXTT1=
EXTT2=
EXTT3=
EXTT4=
EXTT5=
EXTT6=
EXTT7=
EXTT8=
EXTT9=
EXTT10=
EXTT11=
EXTT12=
EXTT13=
EXTT14=
EXTT15=
EXTT16=
EXTT17=
EXTT18=
EXTT19=
EXTT20=
EXTT21=
EXTT22=
EXTT23=
PLAYORDER=
